<svg width="256" height="256" viewBox="0 0 256 256" xmlns="http://www.w3.org/2000/svg"><g fill="none" fill-rule="evenodd"><circle fill="#FFF" cx="128" cy="128" r="128"/><circle fill="red" opacity=".7" cx="128" cy="128" r="128"/><circle fill="#0F0" opacity=".7" cx="128" cy="128" r="128"/><circle fill="#00F" opacity=".7" cx="128" cy="128" r="128"/><path d="M120.920863,163.948662 C125.064748,163.948662 129.582734,162.452259 134.47482,159.459453 C139.366906,156.466647 145.093525,151.747223 151.654676,145.30118 L151.654676,145.30118 L151.654676,130.624921 C145.438849,137.186072 140.086331,142.337151 135.597122,146.078158 C131.107914,149.819165 127.827338,151.689669 125.755396,151.689669 C125.064748,151.689669 124.460432,151.20046 123.942446,150.222043 C123.42446,149.243626 123.165468,148.06377 123.165468,146.682475 C123.165468,143.689669 125.064748,136.668086 128.863309,125.617727 C130.589928,120.668086 131.453237,116.409094 131.453237,112.840748 C131.453237,108.696863 130.302158,105.186072 128,102.308374 C125.697842,99.4306763 122.992806,97.9918273 119.884892,97.9918273 C116.316547,97.9918273 111.366906,100.179777 105.035971,104.555676 C102.733813,106.210353 98.1870504,109.777799 91.3956835,115.258014 L91.3956835,115.258014 L91.3956835,112.322763 C91.3956835,106.552978 90.1348921,102.012511 87.6133094,98.7013597 C85.5503597,96.1563957 83.2580935,94.8839137 80.7365108,94.8839137 C77.4109712,94.8839137 73.4847122,96.4958741 68.9577338,99.719795 C64.4307554,102.943716 58.2697842,108.526 50.4748201,116.466647 C51.3956835,112.783194 52.2877698,109.581306 53.1510791,106.860982 C54.0143885,104.140658 55.1942446,100.723842 56.6906475,96.6105324 L56.6906475,96.6105324 L57.7266187,94.1932662 L42.705036,94.1932662 C39.2517986,103.585353 36.6043165,112.062871 34.7625899,119.62582 C32.9208633,127.18877 32,133.387511 32,138.222043 L32,138.222043 L32,138.321186 C32.0056858,139.980558 32.1463669,143.602187 32.4222122,149.186072 C32.7036871,154.883914 33.0692446,159.632115 33.5188849,163.430676 L33.5188849,163.430676 L46.5035971,163.430676 L46.5035971,133.387511 C54.7679856,125.675281 60.7625899,120.265209 64.4874101,117.157295 C69.4910072,113.01341 72.9244604,110.941468 74.7877698,110.941468 C76.7661871,110.941468 77.7553957,112.437871 77.7553957,115.430676 C77.7553957,120.380317 76.3866906,128.380317 73.6492806,139.430676 C73.439964,140.241036 73.1730201,141.254745 72.8484489,142.471804 L72.7585007,142.808771 C71.601059,147.140881 69.7558993,153.899741 67.2230216,163.085353 L67.2230216,163.085353 L81.7266187,163.085353 C84.1438849,153.30118 85.8417266,146.164489 86.8201439,141.675281 C87.7985612,137.186072 88.4604317,133.675281 88.8057554,131.142906 L88.8057554,131.142906 L91.3956835,128.552978 C95.0125899,125.445065 98.6870504,122.337151 102.419065,119.229237 C109.18705,113.704058 113.329137,110.941468 114.845324,110.941468 C116.478417,110.941468 117.294964,111.977439 117.294964,114.049381 C117.294964,116.35154 115.338129,123.373122 111.42446,135.114129 C109.697842,140.293986 108.834532,144.840748 108.834532,148.754417 C108.834532,151.862331 109.52518,154.797583 110.906475,157.560173 C113.093525,161.819165 116.431655,163.948662 120.920863,163.948662 Z M172.374101,164.293986 C189.064748,164.293986 206.273381,157.905496 224,145.128518 L224,145.128518 L224,130.624921 C214.906475,138.567367 206.848921,144.293986 199.827338,147.804777 C192.805755,151.315568 185.841727,153.070964 178.935252,153.070964 C174.906475,153.070964 171.971223,151.286791 170.129496,147.718446 C168.863309,145.30118 168.230216,142.135712 168.230216,138.222043 L168.230216,138.222043 L168.230216,137.531396 L171.856115,135.977439 C181.410072,132.06377 188.316547,128.552978 192.57554,125.445065 C200.633094,119.574561 204.661871,112.72564 204.661871,104.898302 C204.661871,96.1501007 200.057554,91.776 190.848921,91.776 C181.064748,91.776 172.431655,96.6393094 164.94964,106.365928 C157.467626,116.092547 153.726619,127.229237 153.726619,139.776 C153.726619,146.106935 155.309353,151.776 158.47482,156.783194 C161.640288,161.790388 166.273381,164.293986 172.374101,164.293986 Z M169.956835,126.135712 C171.338129,119.804777 173.985612,114.308374 177.899281,109.646504 C181.81295,104.984633 185.669065,102.653698 189.467626,102.653698 C192.115108,102.653698 193.438849,103.919885 193.438849,106.452259 C193.438849,109.905496 191.309353,113.387511 187.05036,116.898302 C182.791367,120.409094 177.093525,123.48823 169.956835,126.135712 Z" fill="#FFF" fill-rule="nonzero"/></g></svg>