<svg width="26" height="26" viewBox="0 0 26 26" xmlns="http://www.w3.org/2000/svg"><path d="M13,0 C20.179702,0 26,5.820298 26,13 C26,20.179702 20.179702,26 13,26 C5.820298,26 0,20.179702 0,13 C0,5.820298 5.820298,0 13,0 Z M16.019058,6.5 C14.216608,6.5 12.733482,7.983157 12.733482,9.785545 C12.733482,10.035592 12.762042,10.284857 12.818539,10.528404 C10.180641,10.396194 7.719483,9.148459 6.053524,7.098869 C5.187203,8.590213 5.635457,10.522905 7.069773,11.480657 C6.547462,11.46519 6.036369,11.324261 5.57996,11.069808 L5.57996,11.111399 C5.580397,12.66799 6.68761,14.020936 8.213389,14.329136 C7.730169,14.460909 7.223045,14.480157 6.731263,14.385445 C7.160205,15.719268 8.397128,16.638679 9.797946,16.66499 C8.635832,17.578276 7.199453,18.07437 5.721389,18.072902 C5.460217,18.072402 5.199296,18.05659 4.94,18.02553 C6.440969,18.988751 8.187922,19.499813 9.971373,19.497438 L9.971373,19.5 C16.008746,19.5 19.310946,14.498094 19.310946,10.160427 C19.310946,10.018374 19.310946,9.876945 19.301352,9.736141 C19.94375,9.271452 20.498309,8.696144 20.939,8.03706 C20.339944,8.302512 19.70439,8.476564 19.05368,8.553497 C19.738763,8.143397 20.251824,7.497875 20.496778,6.737923 C19.852474,7.120242 19.147487,7.389726 18.412439,7.534685 C17.791791,6.874695 16.92497,6.5 16.019058,6.5 Z"/></svg>